<svg width="15" height="15" viewBox="0 0 15 15" fill="none" xmlns="http://www.w3.org/2000/svg">
<path d="M2.95703 7.75166L2.88825 7.68604L2.81923 7.75141L1.93123 8.59258L1.85486 8.66492L1.93097 8.73753L5.42671 12.0724L5.49574 12.1382L5.56476 12.0724L13.069 4.91352L13.1449 4.84116L13.069 4.76881L12.1873 3.92764L12.1183 3.86183L12.0493 3.92761L5.49577 10.1735L2.95703 7.75166Z" fill="white" stroke="white" stroke-width="0.2"/></svg>
<svg width="24" height="16" fill="none" xmlns="http://www.w3.org/2000/svg">
<path fill-rule="evenodd" clip-rule="evenodd" d="M0 2.67V0h24v2.67H0Zm0 6.66h24V6.67H0v2.66ZM0 16h24v-2.67H0V16Z" fill="#000"/></svg>
<svg width="19" height="19" fill="none" xmlns="http://www.w3.org/2000/svg">
<path d="M18.67 1.88 16.79 0 9.33 7.45 1.88 0 0 1.88l7.45 7.45L0 16.8l1.88 1.88 7.45-7.46 7.46 7.46 1.88-1.88-7.46-7.46 7.46-7.45Z" fill="#212121"/></svg>